<!DOCTYPE svg PUBLIC "-//W3C//DTD SVG 1.1//EN" "http://www.w3.org/Graphics/SVG/1.1/DTD/svg11.dtd">
<svg xmlns="http://www.w3.org/2000/svg" version="1.1" viewBox="0 0 48 48" width="22" height="22">
  <g id="github-icon" fill="#c4a67d">
    <path d="M46 45.026V28.758c0-8.717-4.653-12.773-10.857-12.773-5.006 0-7.25 2.754-8.5 4.687v-4.02H17.21c.125 2.663 0 28.376 0 28.376h9.433V29.18c0-.846.06-1.694.31-2.3.681-1.695 2.233-3.45 4.838-3.45 3.414 0 4.778 2.602 4.778 6.416v15.182H46v-.002zM7.273 12.777c3.288 0 5.338-2.18 5.338-4.904-.06-2.783-2.049-4.9-5.275-4.9C4.111 2.972 2 5.087 2 7.872c0 2.724 2.047 4.904 5.214 4.904h.06zm4.716 32.25V16.65H2.56v28.376h9.43z"></path>
  </g>
</svg>
