<!DOCTYPE svg PUBLIC "-//W3C//DTD SVG 1.1//EN" "http://www.w3.org/Graphics/SVG/1.1/DTD/svg11.dtd">
<svg xmlns="http://www.w3.org/2000/svg" version="1.1" width="42px" height="30px" viewBox="0 0 42 30">
  <g id="pmc-icon" fill="#c4a67d">
    <path d="M15.02643,14.568275 C14.2808836,17.9368776 11.0753195,20.1698366 7.80886863,20.1595899 C5.70821493,20.1550951 3.58145807,19.2413745 2.12694236,17.6957876 L2.13055435,24.6413209 L0.32132162,24.6413209 L0.316592283,13.8013612 C0.281744096,13.4624071 0.272353064,13.1135304 0.290742801,12.755654 C0.297725133,12.6207307 0.306127377,12.4876798 0.315961635,12.3564952 L0.312897005,5.33153278 L2.14852686,5.33153278 L2.14370691,7.22484432 C3.32716428,5.91576334 5.09912591,5.23761939 7.54190196,5.14731715 C8.51388689,5.11149831 9.40951682,5.20956001 10.2191441,5.43504896 C10.8890355,3.32043725 11.3515657,1.85581022 11.2250191,2.25117656 C11.1989964,2.33326454 11.2637724,2.04258935 11.6331449,2.05915256 C11.8561163,2.05915256 12.2780959,2.0460476 12.5553593,2.04932384 C12.7453812,2.05132598 12.9531883,2.16726844 13.0050465,2.33017032 C13.4837518,3.84979913 15.6735899,11.6285004 16.1979754,13.4930443 C16.259007,13.6981733 16.3913671,13.6468455 16.442102,13.4923163 C16.4853483,13.3565344 19.2632245,4.71399815 19.9787551,2.48724777 C20.0839691,2.15671167 20.2230689,1.96759988 20.5503183,1.96778189 C20.8929193,1.95576902 21.0471834,1.96541572 21.1085894,1.97069411 C21.4105651,1.9912616 21.7166594,2.01801756 21.8224351,2.37876786 C21.8877408,2.60181767 22.2212292,3.74028678 22.6722368,5.2798768 C23.3048962,5.13668477 23.9999892,5.0517228 24.7599671,5.02367553 C27.9850967,4.90281872 30.3698241,6.25790753 31.5610646,8.84959452 C31.6159182,8.96681107 31.6883699,9.21070885 31.478129,9.2181714 C31.2111623,9.22891018 30.8339268,9.24201514 30.6264941,9.24947768 C30.3936003,9.25621217 30.1504097,9.0536314 30.0993004,8.95006585 C28.8298046,6.35674074 26.311781,5.38278772 24.0996645,5.647253 C23.6837294,5.69714098 23.2721719,5.80582667 22.8737483,5.96776708 C23.5323618,8.21603505 24.3701428,11.0758319 25.0020053,13.2326447 C25.0194501,13.2502342 25.0328175,13.2721814 25.0401697,13.2974529 L26.639536,18.8681511 C26.6625633,18.9506031 26.6138877,19.0345112 26.5298288,19.0576269 C26.5157877,19.0599931 26.5008107,19.0621772 26.4880801,19.0621772 C26.417875,19.0621772 26.3549712,19.0195861 26.3360626,18.9506031 L25.6394546,16.5224403 C25.6306087,16.5234314 25.6219321,16.5239293 25.6135116,16.5239293 C25.4927587,16.5239293 25.1516555,16.5246574 25.0400761,16.5217452 C24.890118,16.519379 24.7255572,16.5133726 24.6310143,16.245631 C24.6233551,16.2229877 24.3396408,15.3367329 23.9328638,14.065264 L22.2113715,18.2222406 C22.1864721,18.2812129 22.1265637,18.3170695 22.0651576,18.3170695 C22.0447513,18.3170695 22.0252811,18.3145213 22.0069342,18.3063307 C21.9262451,18.2744784 21.886743,18.186566 21.9189437,18.1073902 L23.7846438,13.601948 C23.7012704,13.341322 23.6140113,13.0685308 23.5239543,12.7869757 L19.619024,14.516869 C19.5980561,14.5270617 19.5754032,14.530338 19.5534993,14.530338 C19.4939653,14.530338 19.4364907,14.4979396 19.4112169,14.4415155 C19.3747102,14.3647059 19.4108424,14.2740633 19.4879745,14.2387527 L23.4297969,12.4925951 C23.3285897,12.1761675 23.2244416,11.8505258 23.1188075,11.5202192 L19.7287125,9.73933 C19.6519549,9.69874104 19.6240601,9.60664233 19.6650599,9.53201689 C19.7066213,9.4581195 19.8006026,9.43008945 19.8775474,9.47086043 L22.9851753,11.1023562 C22.4874049,9.54581036 21.9705505,7.9291944 21.5826361,6.71537132 C19.7318413,8.14207782 18.4992994,10.82837 19.1008728,14.0045744 C19.95101,18.4897455 23.670758,20.033036 26.6040215,19.1795758 C28.0772058,18.7478403 29.451354,17.8466926 30.2206149,16.0842581 C30.2488841,16.0198254 30.3409932,15.8829514 30.6002842,15.8805852 C30.8601367,15.8758529 31.0795511,15.8683903 31.4305767,15.8662062 C31.668338,15.9124376 31.6956712,15.9992579 31.6599134,16.0656927 C30.4027738,18.5119511 27.7364769,20.0437748 25.0291803,20.0383144 C21.7217027,20.0309258 18.350682,17.7700637 17.6384985,14.3391752 C17.3086414,15.3741499 17.0829961,16.0810773 17.0630896,16.1407914 C16.9715422,16.4150854 16.84873,16.6063814 16.2769795,16.6227626 C15.7138409,16.6063814 15.5661293,16.4336508 15.4702759,16.1043887 C15.3654633,15.74125 15.2114728,15.2083206 15.02643,14.568275 Z M12.7837205,6.8201998 C12.4264435,5.58773771 12.1788967,4.73563797 12.1661422,4.69634286 C12.1026767,4.50359081 11.9555268,4.48684559 11.8802669,4.71836647 C11.8685323,4.75437504 11.717794,5.21182379 11.4825099,5.92532127 C11.9580017,6.16893906 12.3926984,6.46787396 12.7837205,6.8201998 Z M11.1565697,6.91354872 C10.7156617,8.25012884 10.1355673,10.0078146 9.59786877,11.6351305 L13.1400089,9.6309047 C13.2009879,9.59622284 13.2756222,9.60643752 13.3254992,9.65063994 C12.8458554,8.46592034 12.0691989,7.55624852 11.1565697,6.91354872 Z M13.3759029,9.77904016 C13.3707195,9.82580355 13.3432447,9.86952591 13.2976427,9.89464193 L9.45370806,12.0713736 C9.36536021,12.3386889 9.27865371,12.6009744 9.19443643,12.855655 L13.6685309,14.5196468 C13.8985897,13.4951665 13.941113,12.3419663 13.7306237,11.0958749 C13.6511696,10.625228 13.5308528,10.1863872 13.3759029,9.77904016 Z M13.5949087,14.8195141 C13.5930447,14.8188771 13.5911822,14.8182058 13.5893216,14.8175003 L9.09807228,13.1470336 C9.02778206,13.359545 8.95955283,13.5657642 8.89391533,13.7640792 L10.9282293,18.3511424 C10.9632383,18.428316 10.9259828,18.5185946 10.8462297,18.551721 C10.8258235,18.5610037 10.8056044,18.56519 10.7840748,18.56519 C10.723792,18.56519 10.6655686,18.5296974 10.6399203,18.4727273 L8.74760545,14.2060012 C8.36110726,15.3730115 8.09365068,16.1771781 8.07795764,16.2154168 C7.99127772,16.423276 7.91732833,16.6495185 7.32573319,16.6234906 C7.18682066,16.6174842 7.07711346,16.6122058 6.99155682,16.6021951 C6.98546484,16.6014387 6.97953048,16.6005584 6.97375004,16.5995589 L6.26908062,18.8051381 C6.24698941,18.8704809 6.18483447,18.9117979 6.1179992,18.9117979 C6.10227325,18.9117979 6.08729616,18.9107058 6.07157021,18.9057914 C5.98863457,18.8812196 5.94220558,18.7954914 5.96766664,18.7144955 L7.57695519,13.6821925 C7.58524584,13.6558346 7.59997216,13.6333563 7.61892741,13.6158458 C8.28110301,11.5442389 9.20919659,8.62160006 9.96077792,6.25039883 C8.92579235,5.81229537 7.81646236,5.65783114 6.81251758,5.77799314 C4.94947968,6.00112672 3.09720378,7.39017219 2.13800491,9.46462557 L2.13598355,10.2586321 C1.49515122,12.6501045 1.70932363,13.0248698 2.12549958,14.9214481 L2.12596153,15.8097415 C3.45785663,18.8944204 6.46558937,19.7374733 9.30620342,19.256986 C11.1820889,18.9383789 12.938248,17.2805119 13.5949087,14.8195141 Z M20.1768204,6.36621148 C20.508407,6.12329788 20.8724822,5.91376996 21.2700569,5.73708536 C21.0819063,5.14806595 20.9637848,4.77786369 20.9535765,4.74494041 C20.889175,4.5363532 20.7352854,4.61243474 20.6854866,4.76623596 C20.6741822,4.80247461 20.4756673,5.42683833 20.1768204,6.36621148 Z M14.0321568,1.38342828 C14.0797091,1.4001735 14.2036445,1.43821428 14.2665483,1.55015244 C14.3111051,1.62805412 14.2281695,1.70085943 14.1538457,1.71542049 C14.0808323,1.73070961 13.9265683,1.71159821 13.7616331,1.70267956 C13.595949,1.69339688 11.2393035,1.58455295 10.9393873,1.53631943 C10.6400326,1.4879039 10.699941,1.18284965 10.699941,1.18284965 C10.699941,1.18284965 10.8191961,0.492837338 10.837543,0.389453799 C10.8549539,0.285706234 10.9047527,0.133179112 11.1936234,0.19706577 C11.0532132,0.138457496 13.7751124,1.27221817 14.0321568,1.38342828 Z M20.5550174,1.09406358 C20.6669712,0.773720221 20.6686561,0.818859512 20.7049755,0.689448075 C20.9037964,0.176170647 21.3422508,0.223130071 21.542195,0.232412748 C22.1259272,0.260442792 23.1411868,0.369650755 23.1411868,0.369650755 C26.3996404,0.611000355 25.1512998,4.1058372 23.3049987,4.54084892 C23.0539452,4.60109532 23.0487032,4.4624012 22.9470462,4.27638364 C22.8369646,4.075623 22.7939055,4.02047298 22.7456043,3.89178959 C22.6991754,3.76838459 22.5434136,3.64588966 22.8757178,3.41509683 C24.3165141,2.40728934 23.9873925,1.56766212 22.3127664,1.50541358 C22.3127664,1.50541358 21.2306715,1.47629145 20.8208608,1.45881818 C20.4891182,1.4453492 20.4453102,1.41549902 20.5550174,1.09406358 Z M7.5710954,11.6024725 C7.5093149,11.6024725 7.45015538,11.5677079 7.42563039,11.5081896 L5.45614278,6.8581145 C5.42206989,6.77984879 5.46026148,6.69139034 5.54169942,6.6578999 C5.62182686,6.62513751 5.71356155,6.66317829 5.74651115,6.74107997 L7.71618598,11.3917011 C7.74913558,11.4697848 7.71038236,11.5591533 7.62988049,11.5911876 C7.61097191,11.5988322 7.59056562,11.6024725 7.5710954,11.6024725 Z M6.88404002,12.4243898 C6.86438259,12.4243898 6.84566122,12.4202035 6.82693986,12.413651 L2.52027701,10.7713453 C2.43958793,10.740403 2.40046027,10.6519446 2.43228659,10.5733148 C2.46336406,10.4946851 2.55509875,10.4560983 2.63522619,10.4866765 L6.94188904,12.1297103 C7.02295255,12.1595605 7.06245463,12.248383 7.03062831,12.3262846 C7.00647775,12.3870771 6.94694381,12.4243898 6.88404002,12.4243898 Z M2.87940896,15.6572549 C2.82530421,15.6572549 2.77045061,15.6288609 2.74274299,15.5797173 C2.69912221,15.507276 2.72626819,15.4126291 2.80152808,15.3722222 L6.9981093,13.0486407 C7.07411804,13.0065957 7.17109471,13.0322595 7.21303057,13.1054289 C7.25702578,13.1795083 7.22950537,13.272517 7.15461991,13.3141981 L2.95766426,15.6366874 C2.93201599,15.6508845 2.90655494,15.6572549 2.87940896,15.6572549 Z M25.9056023,12.0223225 C25.8423241,12.0223225 25.7839134,11.9857378 25.759014,11.9249454 C25.728311,11.8463156 25.7691235,11.7578572 25.8496254,11.727643 L30.2326714,10.0851552 C30.314671,10.054031 30.404908,10.0940739 30.4352366,10.1727036 C30.4678118,10.2515154 30.4275608,10.3397918 30.3449996,10.370734 L25.9634513,12.0123118 C25.9432322,12.0197743 25.9243237,12.0223225 25.9056023,12.0223225 Z M30.1069387,15.4475028 C30.0816649,15.4475028 30.0547061,15.4418604 30.0313044,15.4283915 L25.4990491,12.9693921 C25.4232276,12.9280751 25.3970177,12.8343383 25.4389535,12.761351 C25.4803278,12.6874536 25.5780533,12.6606976 25.6529387,12.7023787 L30.1840708,15.161378 C30.2597051,15.202877 30.2872255,15.2953398 30.2454768,15.3696012 C30.2158971,15.4198368 30.16329,15.4475028 30.1069387,15.4475028 Z M25.2397395,11.107633 C25.2170866,11.107633 25.1940594,11.1038107 25.1721554,11.0923439 C25.0939001,11.0572153 25.0609505,10.9651166 25.0985804,10.8893991 L27.2646424,6.51671221 C27.3013362,6.4399026 27.3953175,6.40732223 27.4735728,6.445363 C27.5522025,6.48049156 27.5853393,6.57331833 27.5469605,6.64867183 L25.3820219,11.0222688 C25.3559992,11.0763267 25.298899,11.107633 25.2397395,11.107633 Z" id="Combined-Shape"></path>
  </g>
</svg>
